<!DOCTYPE svg PUBLIC "-//W3C//DTD SVG 1.1//EN" "http://www.w3.org/Graphics/SVG/1.1/DTD/svg11.dtd">
<!-- Uploaded to: SVG Repo, www.svgrepo.com, Transformed by: SVG Repo Mixer Tools -->
<svg width="256px" height="256px" viewBox="-20.64 -20.64 89.28 89.28" fill="none" xmlns="http://www.w3.org/2000/svg" stroke="#ffdd2f">
<g id="SVGRepo_bgCarrier" stroke-width="0">
<path transform="translate(-20.64, -20.64), scale(2.79)" d="M16,27.743831411004066C19.139036819765252,27.709719955429115,21.959785071615716,26.36657470987022,24.432269364087567,24.432269364087567C27.351244150974885,22.148659898226736,30.49354007690975,19.669769774890415,31.011300444602966,16C31.584108891185473,11.940061744324307,30.243012269613068,7.5482258490834555,27.202498968396057,4.797501031603947C24.25967292292541,2.1351529887385943,19.93833330061394,1.9317107814824015,16,2.4194125843544807C12.56500635866385,2.8447835379689472,9.866771363447981,4.982078965461128,7.2662925417554245,7.266292541755423C4.396168929499693,9.787357226485414,0.5135121011314775,12.179957765072402,0.5390858687460423,15.999999999999996C0.5646133885677429,19.81313404194339,4.345900144042868,22.31103665458411,7.382452764098524,24.61754723590147C9.912053470089264,26.53898629028827,12.823584362271813,27.778349056745494,16,27.743831411004066" fill="#007CFF" strokewidth="0"/>
</g>
<g id="SVGRepo_tracerCarrier" stroke-linecap="round" stroke-linejoin="round"/>
<g id="SVGRepo_iconCarrier"> <rect width="48" height="48" fill="white" fill-opacity="0.01"/> <rect x="9" y="18" width="30" height="24" rx="2" fill="#007CFfffdd2f2F88FF" stroke="#007CFfffdd2f" stroke-width="2.64"/> <circle cx="17" cy="26" r="2" fill="white"/> <circle cx="31" cy="26" r="2" fill="white"/> <path d="M20 32C18.8954 32 18 32.8954 18 34C18 35.1046 18.8954 36 20 36V32ZM28 36C29.1046 36 30 35.1046 30 34C30 32.8954 29.1046 32 28 32V36ZM20 36H28V32H20V36Z" fill="white"/> <path d="M24 10V18" stroke="#007CFfffdd2f" stroke-width="2.64" stroke-linecap="round" stroke-linejoin="round"/> <path d="M4 26V34" stroke="#007CFfffdd2f" stroke-width="2.64" stroke-linecap="round" stroke-linejoin="round"/> <path d="M44 26V34" stroke="#007CFfffdd2f" stroke-width="2.64" stroke-linecap="round" stroke-linejoin="round"/> <circle cx="24" cy="8" r="2" stroke="#007CFfffdd2f" stroke-width="2.64"/> </g>
</svg>